<?xml version="1.0" standalone="no"?>
<!DOCTYPE svg PUBLIC "-//W3C//DTD SVG 20010904//EN"
 "http://www.w3.org/TR/2001/REC-SVG-20010904/DTD/svg10.dtd">
<svg version="1.0" xmlns="http://www.w3.org/2000/svg"
 width="1276.000000pt" height="1276.000000pt" viewBox="0 0 1276.000000 1276.000000"
 preserveAspectRatio="xMidYMid meet">
<metadata>
Created by potrace 1.11, written by Peter Selinger 2001-2013
</metadata>
<g transform="translate(0.000000,1276.000000) scale(0.100000,-0.100000)"
fill="#000000" stroke="none">
<path d="M6109 12576 c-2 -2 -70 -6 -150 -10 -81 -3 -153 -8 -160 -10 -8 -3
-43 -7 -79 -10 -578 -50 -1328 -253 -1920 -518 -25 -11 -119 -57 -210 -103
-761 -380 -1448 -928 -2006 -1600 -286 -345 -546 -740 -742 -1130 -60 -119
-152 -313 -152 -321 0 -2 -12 -29 -26 -60 -65 -143 -165 -419 -238 -654 -91
-300 -175 -687 -211 -975 -4 -27 -8 -60 -10 -73 -2 -13 -7 -53 -11 -90 -3 -37
-9 -78 -11 -92 -3 -14 -6 -241 -8 -505 -4 -522 0 -595 51 -955 119 -836 425
-1671 881 -2404 88 -142 286 -427 292 -421 2 2 5 737 7 1632 4 1940 12 3407
19 3483 34 385 163 678 405 921 117 117 227 195 371 263 189 89 334 122 644
146 119 9 6849 7 6885 -2 14 -4 57 -9 95 -13 166 -14 365 -70 510 -142 245
-123 481 -358 605 -602 62 -124 122 -346 144 -536 7 -61 15 -1559 20 -3783 3
-921 6 -1676 8 -1678 8 -7 212 252 339 431 580 811 941 1729 1093 2775 8 58
35 320 41 400 6 86 6 755 0 845 -6 99 -17 217 -20 234 -1 9 -6 43 -9 76 -71
632 -285 1381 -557 1940 -145 300 -360 669 -524 900 -699 987 -1672 1763
-2747 2190 -504 201 -1078 350 -1583 410 -27 3 -63 8 -80 10 -16 2 -61 7 -100
10 -38 3 -92 8 -120 11 -62 6 -730 15 -736 10z"/>
<path d="M3526 8453 c-1 -1 -168 -3 -372 -4 -385 -2 -457 -8 -597 -49 -102
-31 -210 -99 -290 -185 -129 -137 -190 -304 -201 -547 -4 -70 -9 -1398 -12
-2950 l-5 -2823 40 -35 c412 -364 570 -489 866 -685 298 -197 669 -397 970
-523 83 -35 159 -67 170 -72 81 -36 393 -142 555 -189 447 -128 873 -201 1385
-236 81 -6 604 -6 685 0 131 9 227 16 260 20 19 2 58 6 85 10 28 3 70 8 95 11
25 2 56 6 70 9 14 2 50 7 80 11 30 4 57 8 60 9 3 1 25 5 50 9 800 137 1567
429 2267 865 209 129 402 268 661 476 l112 90 -5 2860 c-3 1573 -8 2946 -10
3050 -5 201 -17 289 -59 405 -85 236 -269 386 -546 445 -64 14 -186 17 -825
21 -762 5 -5485 11 -5489 7z m4779 -958 c218 -26 494 -120 675 -232 462 -286
745 -722 816 -1257 16 -116 15 -347 -1 -446 -5 -33 -17 -99 -20 -110 0 -3 -4
-23 -9 -45 -36 -183 -165 -461 -293 -632 -57 -76 -225 -250 -309 -319 -151
-125 -476 -288 -634 -318 -14 -2 -45 -9 -70 -15 -232 -53 -530 -51 -755 5
-514 129 -910 443 -1143 911 -329 656 -193 1464 333 1977 86 84 207 179 300
236 212 130 485 225 710 246 39 4 72 9 75 11 6 6 249 -4 325 -12z m-4271 -860
c340 -60 607 -310 690 -648 18 -73 23 -214 11 -317 -34 -289 -247 -558 -530
-670 -118 -46 -170 -55 -320 -54 -164 0 -226 14 -360 79 -226 109 -370 275
-456 525 -20 57 -22 85 -23 230 0 190 9 240 63 356 51 109 101 183 175 259
195 199 473 289 750 240z"/>
</g>
</svg>
